<svg xmlns="http://www.w3.org/2000/svg" width="24" height="24" viewBox="0 0 24 24">
    <g fill="none" fill-rule="evenodd">
        <g fill="#FFF">
            <g>
                <g>
                    <g>
                        <g>
                            <path d="M12 0C8.741 0 8.332.014 7.052.072 5.775.13 4.903.334 4.14.63c-.789.307-1.458.717-2.125 1.384C1.347 2.681.937 3.35.63 4.139c-.297.764-.5 1.636-.558 2.913C.014 8.332 0 8.741 0 12c0 3.259.014 3.668.072 4.948.058 1.277.261 2.149.558 2.912.307.79.717 1.459 1.384 2.126.667.667 1.336 1.077 2.125 1.384.764.296 1.636.5 2.913.558C8.332 23.986 8.741 24 12 24c3.259 0 3.668-.014 4.948-.072 1.277-.059 2.149-.262 2.913-.558.789-.307 1.458-.717 2.125-1.384.667-.667 1.077-1.336 1.384-2.126.297-.763.5-1.635.558-2.912.058-1.28.072-1.69.072-4.948 0-3.259-.014-3.668-.072-4.948-.058-1.277-.261-2.15-.558-2.913-.307-.789-.717-1.458-1.384-2.125C21.319 1.347 20.65.937 19.861.63c-.764-.296-1.636-.5-2.913-.558C15.668.014 15.259 0 12 0m0 2.162c3.204 0 3.584.012 4.849.07 1.17.054 1.805.249 2.228.413.56.218.96.478 1.38.898.42.42.68.82.897 1.38.165.422.36 1.058.414 2.228.057 1.265.07 1.645.07 4.849s-.013 3.584-.07 4.849c-.053 1.17-.249 1.805-.414 2.228-.217.56-.477.96-.897 1.38-.42.42-.82.68-1.38.897-.423.165-1.058.36-2.228.414-1.265.057-1.645.07-4.849.07s-3.584-.013-4.849-.07c-1.17-.054-1.805-.249-2.228-.414-.56-.217-.96-.477-1.38-.897-.42-.42-.68-.82-.897-1.38-.165-.423-.36-1.058-.414-2.228-.057-1.265-.07-1.645-.07-4.85 0-3.203.013-3.583.07-4.848.053-1.17.249-1.806.414-2.229.217-.56.477-.96.897-1.379.42-.42.82-.68 1.38-.898.423-.164 1.058-.36 2.228-.413 1.265-.058 1.645-.07 4.849-.07m0 3.676c3.403 0 6.162 2.759 6.162 6.162S15.403 18.162 12 18.162 5.838 15.403 5.838 12 8.597 5.838 12 5.838zM12 8c-2.209 0-4 1.79-4 4s1.791 4 4 4 4-1.79 4-4-1.791-4-4-4zm6.405-3.846c.796 0 1.44.645 1.44 1.44 0 .796-.644 1.44-1.44 1.44-.795 0-1.44-.644-1.44-1.44 0-.795.645-1.44 1.44-1.44z" transform="translate(-1404 -1307) translate(160 1040) translate(1173 254) translate(58) translate(13 13)"/>
                        </g>
                    </g>
                </g>
            </g>
        </g>
    </g>
</svg>
