<svg xmlns="http://www.w3.org/2000/svg" width="32" height="32" viewBox="0 0 32 32">
    <g fill="none" fill-rule="evenodd">
        <g fill="#48265C">
            <g>
                <g>
                    <path d="M16 0c-4.345 0-4.89.018-6.597.097C7.7.174 6.537.445 5.52.84c-1.052.409-1.944.956-2.834 1.845C1.796 3.575 1.25 4.467.84 5.52.444 6.537.174 7.7.097 9.403.018 11.11 0 11.655 0 16c0 4.345.018 4.89.097 6.597.077 1.703.347 2.866.743 3.883.409 1.053.956 1.945 1.845 2.834.89.89 1.782 1.437 2.834 1.846 1.018.395 2.181.666 3.884.743C11.11 31.981 11.655 32 16 32c4.345 0 4.89-.019 6.597-.097 1.703-.077 2.866-.348 3.884-.743 1.052-.41 1.944-.956 2.834-1.846.889-.889 1.436-1.781 1.845-2.834.396-1.017.666-2.18.743-3.883C31.982 20.89 32 20.345 32 16c0-4.345-.018-4.89-.097-6.597-.077-1.703-.347-2.866-.743-3.884-.409-1.052-.956-1.944-1.845-2.834-.89-.89-1.782-1.436-2.834-1.845C25.463.445 24.3.174 22.597.097 20.89.018 20.345 0 16 0m0 2.883c4.272 0 4.778.016 6.465.093 1.56.072 2.407.332 2.971.55.747.291 1.28.638 1.84 1.198.56.56.907 1.093 1.197 1.84.219.563.48 1.41.55 2.97.078 1.688.094 2.194.094 6.466s-.016 4.778-.093 6.465c-.071 1.56-.332 2.407-.551 2.971-.29.747-.637 1.28-1.197 1.84s-1.093.907-1.84 1.197c-.564.219-1.41.48-2.97.55-1.687.078-2.194.094-6.466.094s-4.779-.016-6.465-.093c-1.56-.072-2.407-.332-2.971-.551-.747-.29-1.28-.637-1.84-1.197s-.907-1.093-1.197-1.84c-.219-.564-.48-1.41-.55-2.97-.078-1.688-.094-2.194-.094-6.466s.016-4.778.093-6.466c.071-1.56.332-2.407.551-2.97.29-.747.637-1.28 1.197-1.84s1.093-.907 1.84-1.197c.564-.22 1.41-.48 2.97-.55 1.688-.078 2.194-.094 6.466-.094m0 4.9c4.538 0 8.216 3.68 8.216 8.217 0 4.538-3.678 8.216-8.216 8.216-4.538 0-8.216-3.678-8.216-8.216 0-4.538 3.678-8.216 8.216-8.216zm0 2.883c-2.945 0-5.333 2.388-5.333 5.334 0 2.945 2.388 5.333 5.333 5.333 2.945 0 5.333-2.388 5.333-5.333 0-2.946-2.388-5.334-5.333-5.334zm8.54-5.127c1.061 0 1.92.86 1.92 1.92s-.859 1.92-1.92 1.92c-1.06 0-1.92-.86-1.92-1.92s.86-1.92 1.92-1.92z" transform="translate(-212 -460) translate(164 460) translate(48)"/>
                </g>
            </g>
        </g>
    </g>
</svg>
