<svg xmlns="http://www.w3.org/2000/svg" width="32" height="32" viewBox="0 0 32 32">
    <g fill="none" fill-rule="evenodd">
        <g fill="#48265C">
            <g>
                <path d="M31.837 2.281c0-1.26-1.053-2.28-2.351-2.28H2.351C1.052 0 0 1.02 0 2.28v27.275c0 1.26 1.052 2.28 2.351 2.28h27.135c1.298 0 2.351-1.02 2.351-2.28V2.28zm-10.41 9.669c3.166 0 5.536 2.053 5.536 6.47v8.229h-4.795V18.97c0-1.932-.695-3.25-2.433-3.25-1.33 0-2.125.889-2.472 1.747-.129.308-.165.736-.165 1.165v8.016h-4.797v-.043-.214c.005-.832.017-3.566.023-6.415l.002-.685.002-1.362v-2.536c-.002-1.549-.01-2.735-.027-3.091h4.797v2.022c.668-.979 1.776-2.375 4.33-2.375zm-11.797.353v14.346H4.835V12.303H9.63zM7.267 5.36c1.645 0 2.657 1.077 2.689 2.487 0 1.381-1.044 2.49-2.72 2.49h-.032c-1.613 0-2.66-1.11-2.66-2.492 0-1.409 1.078-2.485 2.723-2.485z" transform="translate(-164 -460) translate(164 460)"/>
            </g>
        </g>
    </g>
</svg>
