<svg xmlns="http://www.w3.org/2000/svg" width="24" height="24" viewBox="0 0 24 24">
    <g fill="none" fill-rule="evenodd">
        <g fill="#FFF">
            <g>
                <g>
                    <g>
                        <path d="M23.878 1.71c0-.944-.79-1.71-1.763-1.71H1.764C.789 0 0 .766 0 1.71v20.457c0 .945.79 1.71 1.764 1.71h20.35c.974 0 1.764-.765 1.764-1.71V1.71zm-7.807 7.252c2.374 0 4.152 1.54 4.152 4.853v6.172h-3.597v-5.759c0-1.45-.521-2.438-1.825-2.438-.998 0-1.594.667-1.854 1.311-.096.23-.124.552-.124.874v6.012H9.225v-.044l.001-.127c.004-.723.017-3.604.02-6.19v-2.233c-.002-1.086-.008-1.91-.02-2.166h3.597v1.517c.501-.734 1.332-1.782 3.248-1.782zm-8.849.265v10.76H3.626V9.227h3.596zM5.45 4.02c1.234 0 1.993.808 2.017 1.865 0 1.036-.783 1.867-2.04 1.867h-.024c-1.21 0-1.994-.832-1.994-1.869 0-1.056.807-1.863 2.041-1.863z" transform="translate(-1346 -1307) translate(160 1040) translate(1173 254) translate(13 13)"/>
                    </g>
                </g>
            </g>
        </g>
    </g>
</svg>
