<svg xmlns="http://www.w3.org/2000/svg" xmlns:xlink="http://www.w3.org/1999/xlink" width="125" height="53" viewBox="0 0 125 53">
    <defs>
        <path id="43zkr84iwa" d="M0 0H125V53H0z"/>
    </defs>
    <g fill="none" fill-rule="evenodd">
        <g>
            <g transform="translate(-14 -120) translate(14 120)">
                <mask id="mvliow0xub" fill="#fff">
                    <use xlink:href="#43zkr84iwa"/>
                </mask>
                <g mask="url(#mvliow0xub)">
                    <g fill="#FFF" fill-rule="nonzero">
                        <g>
                            <path d="M0 0L4.808 2.348 4.807 14.38 0 12.009z" transform="translate(9.615 12.527) translate(0 1.975)"/>
                            <path d="M0 12.074L4.804 14.442 9.624 12.068 9.624 7.257z" transform="translate(9.615 12.527) translate(0 1.975)"/>
                            <path d="M14.423 4.893L9.616 7.303 9.615 19.273 14.423 16.902z" transform="translate(9.615 12.527) translate(0 1.975)"/>
                        </g>
                        <path d="M26.108 12.396c-2.805-.492-4.275-.737-4.275-2.374 0-1.774 2.07-2.129 4.003-2.129 1.715 0 3.077.3 4.656.682.071.021.145.03.218.028.11 0 .19-.055.218-.219.066-.332.103-.67.109-1.01 0-.382.027-.463-.3-.573-.571-.163-2.614-.682-4.928-.682-3.24 0-6.264.792-6.264 4.094 0 3.083 2.479 3.684 6.182 4.312 2.886.491 3.73.982 3.73 2.483 0 2.047-2.26 2.374-4.111 2.374-2.315 0-4.33-.6-5.42-.9-.081 0-.163-.028-.217-.028-.109 0-.164.055-.218.273-.091.43-.128.87-.109 1.31.027.246.055.3.354.382.708.191 2.914.737 5.474.737 3.24 0 6.535-.819 6.535-4.257 0-3.084-1.906-3.848-5.637-4.503zM42.665 19.151c-.055 0-.11 0-.136.027-.327.055-1.09.219-1.988.219-1.743 0-2.996-.328-2.996-3.084V8.535c0-.191.028-.273.273-.273h4.248c.19 0 .272 0 .3-.218.031-.208.05-.418.054-.628-.004-.21-.022-.42-.055-.628-.081-.272-.136-.272-.327-.272H37.79c-.218 0-.272-.055-.272-.273V2.695c0-.219 0-.3-.272-.328-.29-.035-.58-.053-.872-.054-.291 0-.582.019-.871.054-.272.028-.272.11-.272.328v13.754c0 3.466 1.77 4.722 4.874 4.722 1.144 0 2.179-.192 2.505-.3.245-.028.245-.028.273-.274.022-.107.031-.217.027-.327 0-.355-.027-.737-.082-.955-.027-.137-.082-.164-.163-.164zM54.13 6.366c-.317-.037-.636-.056-.954-.054-1.743 0-3.295.546-4.303 1.801-.081.11-.136.11-.19.11h-.11c-.135 0-.163 0-.19-.165l-.19-1.255c-.028-.218-.136-.3-.354-.3H44.87c-.19 0-.272 0-.299.218-.023.218-.032.436-.027.655.003.21.021.42.054.628.027.218.11.218.3.218h1.143c.218 0 .273.055.273.273v12.28c0 .22 0 .301.272.328.29.036.58.054.871.055.292-.001.583-.02.872-.055.272-.027.272-.109.272-.327v-7.587c0-3.22 1.362-4.967 4.357-4.967.626 0 1.062.055 1.28.055.19 0 .218-.055.272-.219.055-.218.055-.464.055-.764 0-.19-.027-.41-.027-.6-.11-.218-.164-.3-.409-.328zM76.322.055c-.578-.073-1.164-.073-1.742 0-.273.027-.273.109-.273.327V7.67c0 .19-.027.218-.163.218h-.11c-.108 0-.108 0-.217-.11-.327-.3-1.525-1.582-4.466-1.582-3.649 0-6.726 2.02-6.726 7.614 0 5.567 3.05 7.368 6.699 7.368 2.478 0 3.594-.791 4.411-1.582.136-.137.164-.137.3-.137h.082c.136 0 .19.027.217.191l.137 1.01c.027.218.054.273.3.328.252.035.506.054.762.054.264 0 .528-.019.79-.054.217-.055.272-.11.272-.328V.382c0-.246 0-.3-.273-.327zm-6.59 19.43c-3.567 0-4.792-2.292-4.792-5.785 0-3.493 1.252-5.813 4.792-5.813 3.568 0 4.793 2.32 4.793 5.813s-1.225 5.785-4.793 5.785zM85.894 6.312c-5.013 0-6.934 3.083-6.934 7.436 0 5.68 3.307 7.437 7.975 7.437 2.693 0 4.347-.595 4.8-.784.16-.054.187-.135.187-.325 0-.351-.027-.973-.107-1.298-.026-.135-.08-.162-.186-.162-.054 0-.107.027-.187.027-.587.19-2.267.811-4.614.811-2.694 0-5.52-.973-5.52-4.678 0-.162.053-.216.213-.216h10.721c.293 0 .373-.055.427-.352.026-.298.053-.757.053-1.136.027-4.543-2.32-6.76-6.828-6.76zm4.294 6.598h-8.614c-.213 0-.267-.108-.267-.324 0-3.056 1.68-4.625 4.56-4.625 2.881 0 4.561 1.596 4.561 4.625 0 .216-.026.324-.24.324zM105.393 6.742c-.027-.218-.082-.3-.327-.328-.316-.037-.634-.055-.953-.054-1.743 0-3.295.546-4.302 1.801-.082.11-.136.11-.191.11h-.109c-.136 0-.163 0-.19-.164L99.13 6.85c-.027-.218-.136-.3-.354-.3h-2.941c-.19 0-.272 0-.3.218-.032.208-.05.418-.054.628.003.21.022.42.054.628.028.218.11.218.3.218h1.144c.217 0 .272.055.272.273v12.28c0 .219 0 .3.272.328.29.036.58.054.872.055.291-.001.582-.02.871-.055.273-.027.273-.109.273-.327v-7.56c0-3.22 1.361-4.967 4.357-4.967.626 0 1.062.055 1.28.055.19 0 .217-.055.272-.219.054-.218.054-.464.054-.764-.047-.198-.083-.398-.109-.6zM57.778.082c-.844 0-1.47.628-1.47 1.446 0 .819.626 1.447 1.47 1.447s1.47-.628 1.47-1.447c0-.818-.626-1.446-1.47-1.446zM58.894 6.838c0-.218 0-.3-.272-.327-.289-.035-.58-.054-.871-.055-.292.001-.582.02-.872.055-.272.027-.272.11-.272.328v13.945c0 .218 0 .3.272.328.29.035.58.053.872.054.291 0 .582-.02.871-.054.272-.028.272-.11.272-.328V6.838z" transform="translate(9.615 12.527)"/>
                    </g>
                </g>
            </g>
        </g>
    </g>
</svg>
