<svg xmlns="http://www.w3.org/2000/svg" xmlns:xlink="http://www.w3.org/1999/xlink" width="170" height="72" viewBox="0 0 170 72">
    <defs>
        <path id="oi4to7rhaa" d="M0 0H170V72H0z"/>
    </defs>
    <g fill="none" fill-rule="evenodd">
        <g>
            <g transform="translate(-160 -66) translate(160 66)">
                <mask id="rkx0yy1lbb" fill="#fff">
                    <use xlink:href="#oi4to7rhaa"/>
                </mask>
                <g mask="url(#rkx0yy1lbb)">
                    <g fill="#FFF" fill-rule="nonzero">
                        <g>
                            <path d="M0 0L6.539 3.19 6.538 19.535 0 16.315z" transform="translate(13.077 17.018) translate(0 2.684)"/>
                            <path d="M0 16.402L6.533 19.619 13.089 16.395 13.089 9.859z" transform="translate(13.077 17.018) translate(0 2.684)"/>
                            <path d="M19.615 6.647L13.078 9.921 13.077 26.182 19.615 22.961z" transform="translate(13.077 17.018) translate(0 2.684)"/>
                        </g>
                        <path d="M35.507 16.84c-3.814-.668-5.814-1.001-5.814-3.226 0-2.41 2.814-2.891 5.444-2.891 2.333 0 4.184.407 6.333.926.096.029.196.041.296.037.148 0 .26-.074.296-.296.09-.452.14-.911.148-1.372 0-.519.037-.63-.407-.778-.778-.223-3.555-.927-6.703-.927-4.407 0-8.518 1.075-8.518 5.56 0 4.19 3.37 5.006 8.407 5.858 3.925.668 5.073 1.335 5.073 3.374 0 2.78-3.073 3.226-5.592 3.226-3.148 0-5.888-.816-7.37-1.224-.11 0-.222-.037-.296-.037-.148 0-.222.074-.296.37-.124.585-.174 1.183-.148 1.78.037.334.074.408.481.52.963.259 3.963 1 7.444 1 4.407 0 8.888-1.112 8.888-5.783 0-4.19-2.592-5.227-7.666-6.117zM58.024 26.016c-.074 0-.148 0-.185.037-.445.075-1.482.297-2.704.297-2.37 0-4.073-.445-4.073-4.19V11.596c0-.26.037-.371.37-.371h5.778c.259 0 .37 0 .407-.297.043-.282.068-.567.074-.852-.005-.286-.03-.57-.074-.853-.111-.37-.185-.37-.445-.37h-5.777c-.296 0-.37-.075-.37-.371V3.66c0-.297 0-.408-.37-.445-.394-.048-.79-.073-1.186-.074-.396.001-.792.026-1.185.074-.37.037-.37.148-.37.445v18.685c0 4.709 2.407 6.414 6.629 6.414 1.555 0 2.963-.26 3.407-.408.333-.037.333-.037.37-.37.031-.147.043-.296.037-.446 0-.482-.037-1-.11-1.297-.038-.185-.112-.223-.223-.223zM73.616 8.649c-.43-.052-.864-.076-1.297-.075-2.37 0-4.48.742-5.851 2.447-.111.149-.185.149-.26.149h-.148c-.185 0-.222 0-.259-.223l-.259-1.705c-.037-.297-.185-.408-.481-.408h-4.037c-.26 0-.37 0-.407.297-.031.295-.044.592-.038.89.005.285.03.57.075.852.037.297.148.297.407.297h1.555c.297 0 .37.074.37.37v16.684c0 .296 0 .408.371.445.393.048.789.073 1.185.074.396-.001.792-.026 1.185-.074.37-.037.37-.148.37-.445V17.917c0-4.375 1.852-6.748 5.926-6.748.852 0 1.444.075 1.74.075.26 0 .297-.075.371-.297.074-.297.074-.63.074-1.038 0-.26-.037-.556-.037-.816-.148-.296-.222-.407-.555-.444zM103.798.074c-.787-.099-1.583-.099-2.37 0-.37.037-.37.148-.37.445v9.899c0 .26-.037.296-.222.296h-.149c-.148 0-.148 0-.296-.148-.445-.408-2.074-2.15-6.074-2.15-4.962 0-9.147 2.743-9.147 10.343 0 7.563 4.148 10.01 9.11 10.01 3.37 0 4.889-1.075 6-2.15.185-.185.222-.185.407-.185h.112c.185 0 .259.037.296.26l.185 1.37c.037.298.074.372.407.446.344.049.69.073 1.037.074.36 0 .718-.025 1.074-.074.297-.074.37-.148.37-.445V.519c0-.334 0-.408-.37-.445zm-8.962 26.397c-4.851 0-6.518-3.114-6.518-7.86 0-4.745 1.704-7.897 6.518-7.897 4.852 0 6.518 3.152 6.518 7.897 0 4.746-1.666 7.86-6.518 7.86zM116.816 8.574c-6.818 0-9.43 4.188-9.43 10.103 0 7.715 4.498 10.103 10.845 10.103 3.664 0 5.912-.809 6.529-1.066.218-.073.254-.183.254-.44 0-.478-.036-1.323-.145-1.764-.036-.184-.109-.22-.254-.22-.073 0-.145.036-.254.036-.798.258-3.083 1.103-6.275 1.103-3.663 0-7.508-1.323-7.508-6.356 0-.22.072-.294.29-.294h14.581c.399 0 .508-.074.58-.478.037-.404.073-1.028.073-1.543.036-6.171-3.156-9.184-9.286-9.184zm5.84 8.964h-11.715c-.29 0-.363-.147-.363-.44 0-4.152 2.285-6.283 6.202-6.283 3.918 0 6.203 2.168 6.203 6.282 0 .294-.037.441-.327.441zM143.335 9.16c-.037-.298-.112-.409-.445-.446-.43-.051-.863-.076-1.296-.074-2.37 0-4.481.741-5.851 2.447-.112.148-.186.148-.26.148h-.148c-.185 0-.222 0-.26-.222l-.258-1.706c-.037-.296-.186-.408-.482-.408h-4c-.259 0-.37 0-.407.297-.045.282-.07.567-.074.853.005.285.03.57.074.852.037.297.148.297.407.297h1.556c.296 0 .37.074.37.37v16.684c0 .297 0 .408.37.445.394.048.79.073 1.186.074.396-.001.792-.026 1.185-.074.37-.037.37-.148.37-.445v-10.27c0-4.374 1.852-6.747 5.926-6.747.852 0 1.444.074 1.74.074.26 0 .297-.074.37-.297.075-.296.075-.63.075-1.038-.064-.268-.114-.54-.148-.815zM78.578.111c-1.148 0-2 .853-2 1.965s.852 1.965 2 1.965c1.148 0 2-.853 2-1.965s-.852-1.965-2-1.965zM80.096 9.29c0-.297 0-.408-.37-.445-.393-.048-.789-.073-1.185-.074-.396.001-.792.026-1.185.074-.37.037-.37.148-.37.445v18.945c0 .296 0 .408.37.445.393.048.789.073 1.185.074.396-.001.792-.026 1.185-.074.37-.037.37-.148.37-.445V9.29z" transform="translate(13.077 17.018)"/>
                    </g>
                </g>
            </g>
        </g>
    </g>
</svg>
