<svg xmlns="http://www.w3.org/2000/svg" xmlns:xlink="http://www.w3.org/1999/xlink" width="209" height="61" viewBox="0 0 209 61">
    <defs>
        <path id="warjim9u7a" d="M0 0H209V61H0z"/>
        <path id="gsemxuze0c" d="M0 0L222 0 222 74.037 222 94 0 94z"/>
    </defs>
    <g fill="none" fill-rule="evenodd">
        <g>
            <g>
                <g transform="translate(-160 -1088) translate(160 1040) translate(0 48)">
                    <mask id="v53754warb" fill="#fff">
                        <use xlink:href="#warjim9u7a"/>
                    </mask>
                    <g mask="url(#v53754warb)">
                        <g transform="translate(-15 -12)">
                            <mask id="9606ymrjjd" fill="#fff">
                                <use xlink:href="#gsemxuze0c"/>
                            </mask>
                            <g mask="url(#9606ymrjjd)">
                                <g fill-rule="nonzero">
                                    <g>
                                        <path fill="#00B5EC" d="M0 0L8.539 4.165 8.537 25.504 0 21.3z" transform="translate(17.077 22.218) translate(0 3.504)"/>
                                        <path fill="#48265C" d="M0 21.414L8.531 25.614 17.093 21.404 17.093 12.872z" transform="translate(17.077 22.218) translate(0 3.504)"/>
                                        <path fill="#00B5EC" d="M25.615 8.678L17.079 12.953 17.077 34.182 25.615 29.977z" transform="translate(17.077 22.218) translate(0 3.504)"/>
                                    </g>
                                    <path fill="#48265C" d="M46.368 21.985c-4.981-.871-7.593-1.307-7.593-4.21 0-3.147 3.676-3.776 7.11-3.776 3.046 0 5.464.532 8.27 1.21.125.037.256.053.386.048.194 0 .339-.097.387-.387.118-.59.182-1.19.194-1.79 0-.678.048-.824-.532-1.017-1.016-.29-4.643-1.21-8.754-1.21-5.755 0-11.123 1.403-11.123 7.26 0 5.47 4.4 6.534 10.978 7.648 5.126.871 6.626 1.742 6.626 4.404 0 3.63-4.014 4.211-7.303 4.211-4.11 0-7.69-1.065-9.624-1.597-.145 0-.29-.049-.387-.049-.193 0-.29.097-.387.484-.162.764-.227 1.544-.193 2.324.048.436.096.532.628.677 1.258.34 5.175 1.307 9.721 1.307 5.755 0 11.607-1.452 11.607-7.55 0-5.47-3.385-6.825-10.01-7.987zM75.773 33.966c-.097 0-.194 0-.242.048-.58.097-1.935.387-3.53.387-3.096 0-5.32-.58-5.32-5.469V15.138c0-.34.048-.485.483-.485h7.545c.339 0 .484 0 .532-.387.056-.368.088-.74.097-1.113-.006-.373-.039-.745-.097-1.113-.145-.484-.242-.484-.58-.484h-7.545c-.387 0-.484-.097-.484-.484V4.779c0-.387 0-.532-.484-.58-.513-.063-1.03-.095-1.547-.097-.518.002-1.034.034-1.548.097-.483.048-.483.193-.483.58v24.395c0 6.147 3.143 8.374 8.656 8.374 2.032 0 3.87-.34 4.45-.533.435-.048.435-.048.483-.484.04-.19.057-.386.049-.58 0-.63-.049-1.308-.145-1.695-.049-.242-.145-.29-.29-.29zM96.133 11.291c-.561-.067-1.127-.099-1.692-.097-3.096 0-5.852.969-7.642 3.195-.145.194-.242.194-.338.194h-.194c-.242 0-.29 0-.338-.29l-.339-2.227c-.048-.387-.242-.533-.628-.533H79.69c-.339 0-.484 0-.532.388-.04.385-.056.773-.048 1.161.006.373.038.745.096 1.113.049.388.194.388.532.388h2.032c.386 0 .483.096.483.484v21.78c0 .388 0 .533.484.582.513.062 1.03.095 1.547.097.518-.002 1.035-.035 1.548-.097.484-.049.484-.194.484-.581V23.39c0-5.711 2.418-8.809 7.738-8.809 1.112 0 1.886.097 2.273.097.338 0 .387-.097.483-.387.097-.387.097-.823.097-1.355 0-.34-.048-.727-.048-1.065-.194-.387-.29-.532-.726-.58zM135.549.097c-1.028-.13-2.068-.13-3.096 0-.483.048-.483.193-.483.58v12.924c0 .339-.049.387-.29.387h-.194c-.194 0-.194 0-.387-.193-.58-.533-2.708-2.808-7.932-2.808-6.48 0-11.945 3.582-11.945 13.504 0 9.874 5.417 13.069 11.897 13.069 4.401 0 6.384-1.404 7.835-2.807.242-.242.29-.242.532-.242h.145c.242 0 .339.048.387.338l.242 1.791c.048.388.097.484.532.581.448.064.9.096 1.354.097.469 0 .938-.033 1.402-.097.387-.096.484-.193.484-.58V.677c0-.436 0-.533-.483-.581zm-11.704 34.462c-6.336 0-8.512-4.066-8.512-10.261 0-6.196 2.225-10.31 8.512-10.31 6.335 0 8.512 4.114 8.512 10.31 0 6.195-2.177 10.261-8.512 10.261zM152.548 11.194c-8.904 0-12.315 5.468-12.315 13.19 0 10.072 5.874 13.19 14.163 13.19 4.784 0 7.72-1.056 8.526-1.391.284-.096.331-.24.331-.576 0-.624-.047-1.727-.189-2.302-.047-.24-.142-.288-.332-.288-.094 0-.19.048-.331.048-1.042.336-4.026 1.439-8.195 1.439-4.784 0-9.804-1.727-9.804-8.298 0-.288.094-.383.379-.383h19.04c.522 0 .664-.096.759-.624.047-.528.094-1.343.094-2.015.048-8.057-4.12-11.99-12.126-11.99zm7.626 11.703h-15.299c-.379 0-.473-.192-.473-.575 0-5.42 2.984-8.202 8.1-8.202 5.115 0 8.099 2.83 8.099 8.202 0 .383-.047.575-.426.575zM187.178 11.958c-.048-.388-.145-.533-.58-.581-.562-.067-1.127-.1-1.693-.097-3.095 0-5.852.968-7.641 3.195-.145.193-.242.193-.339.193h-.193c-.242 0-.29 0-.339-.29l-.338-2.227c-.049-.387-.242-.532-.63-.532h-5.222c-.339 0-.484 0-.532.387-.058.368-.09.74-.097 1.113.006.373.039.745.097 1.113.048.388.193.388.532.388h2.031c.387 0 .484.096.484.484v21.78c0 .388 0 .533.483.582.514.062 1.03.095 1.548.096.518-.002 1.034-.034 1.548-.097.483-.048.483-.193.483-.58V23.476c0-5.712 2.419-8.81 7.738-8.81 1.113 0 1.887.098 2.273.098.339 0 .387-.097.484-.388.097-.387.097-.822.097-1.355-.084-.35-.149-.706-.194-1.064zM102.614.145c-1.5 0-2.612 1.113-2.612 2.566 0 1.452 1.113 2.565 2.612 2.565s2.611-1.113 2.611-2.565c0-1.453-1.112-2.566-2.611-2.566zM104.597 12.129c0-.388 0-.533-.484-.581-.514-.063-1.03-.095-1.548-.097-.517.002-1.034.034-1.547.097-.484.048-.484.193-.484.58v24.734c0 .387 0 .533.484.581.513.063 1.03.095 1.547.097.518-.002 1.034-.034 1.548-.097.484-.048.484-.193.484-.58V12.127z" transform="translate(17.077 22.218)"/>
                                </g>
                            </g>
                        </g>
                    </g>
                </g>
            </g>
        </g>
    </g>
</svg>
