<?xml version="1.0" encoding="utf-8"?>
<!-- Generator: Adobe Illustrator 23.0.1, SVG Export Plug-In . SVG Version: 6.00 Build 0)  -->
<svg version="1.1" id="Layer_1" xmlns="http://www.w3.org/2000/svg" xmlns:xlink="http://www.w3.org/1999/xlink" x="0px" y="0px"
	 viewBox="0 0 170 72" style="enable-background:new 0 0 170 72;" xml:space="preserve">
<style type="text/css">
	.st0{fill:#FFFFFF;}
</style>
<g>
	<path class="st0" d="M55.44,50.16L49.79,21.9H52c1.49,7.9,4.22,21.75,4.66,25.02h0.03c0.46-3.09,3.61-17.67,5.02-25.02h2.18
		c1.31,6.64,4.4,22.22,4.79,24.93h0.03c0.66-4.4,3.86-18.62,5.16-24.93h2.12l-6.21,28.26h-2.34c-1.31-6.59-4.29-21.64-4.71-24.5
		H62.7c-0.57,3.92-3.53,17.71-4.94,24.5H55.44z"/>
	<path class="st0" d="M79.53,21.9h7.55c4.15,0,6.24,2.99,6.24,7c0,3.32-1.44,5.48-3.1,6.17c1.47,0.59,3.81,2.58,3.81,6.89
		c0,5.5-3.05,8.21-6.81,8.21h-7.7V21.9z M86.55,33.88c3.32,0,4.6-1.72,4.6-4.76c0-2.66-1.37-4.7-4.06-4.7h-5.48v9.47H86.55z
		 M81.61,47.66h5.51c2.67,0,4.74-1.77,4.74-5.64c0-3.36-1.58-5.64-5.44-5.64h-4.8V47.66z"/>
	<path class="st0" d="M102.33,24.46h-6.84V21.9h15.84v2.56h-6.86v25.7h-2.14V24.46z"/>
	<path class="st0" d="M126.9,36.58h-10.45v11.03h11.46l-0.29,2.56h-13.26V21.9h13.06v2.56h-10.97v9.56h10.45V36.58z"/>
	<path class="st0" d="M147.77,42.41c-0.95,4.62-3.47,8.09-7.99,8.09c-6.06,0-9.19-6.44-9.19-14.41c0-7.65,3.1-14.59,9.26-14.59
		c4.66,0,7.3,3.58,7.95,8.3h-2.12c-0.85-3.4-2.49-5.78-5.93-5.78c-4.89,0-6.92,6.08-6.92,12c0,5.83,1.97,11.96,7.04,11.96
		c3.29,0,4.87-2.43,5.79-5.58H147.77z"/>
	<path class="st0" d="M152.07,21.9h2.12v12.08h11.7V21.9H168v28.26h-2.12V36.54h-11.7v13.62h-2.12V21.9z"/>
</g>
<g>
	<polygon class="st0" points="0,14 9.84,14 14.16,26.48 9.36,40.6 	"/>
	<polygon class="st0" points="18.24,19.25 5.28,58 15.12,58 28.32,19.25 	"/>
	<polygon class="st0" points="40.08,14 49.92,14 38.16,48.15 28.32,48.15 23.3,33.99 28.32,19.7 33.12,33.7 	"/>
</g>
</svg>
